<?xml version="1.0" encoding="utf-8"?>
<svg xmlns="http://www.w3.org/2000/svg" xmlns:xlink="http://www.w3.org/1999/xlink" style="margin: auto; background: rgb(255, 255, 255,0); display: block; shape-rendering: auto;" width="115px" height="115px" viewBox="0 0 100 100" preserveAspectRatio="xMidYMid">
<g transform="rotate(0 50 50)">
  <rect x="46" y="23.5" rx="2.32" ry="2.32" width="8" height="7" fill="#5ca8f6">
    <animate attributeName="opacity" values="1;0" keyTimes="0;1" dur="0.5780346820809249s" begin="-0.5298651252408478s" repeatCount="indefinite"></animate>
  </rect>
</g><g transform="rotate(30 50 50)">
  <rect x="46" y="23.5" rx="2.32" ry="2.32" width="8" height="7" fill="#5ca8f6">
    <animate attributeName="opacity" values="1;0" keyTimes="0;1" dur="0.5780346820809249s" begin="-0.48169556840077077s" repeatCount="indefinite"></animate>
  </rect>
</g><g transform="rotate(60 50 50)">
  <rect x="46" y="23.5" rx="2.32" ry="2.32" width="8" height="7" fill="#5ca8f6">
    <animate attributeName="opacity" values="1;0" keyTimes="0;1" dur="0.5780346820809249s" begin="-0.4335260115606937s" repeatCount="indefinite"></animate>
  </rect>
</g><g transform="rotate(90 50 50)">
  <rect x="46" y="23.5" rx="2.32" ry="2.32" width="8" height="7" fill="#5ca8f6">
    <animate attributeName="opacity" values="1;0" keyTimes="0;1" dur="0.5780346820809249s" begin="-0.3853564547206166s" repeatCount="indefinite"></animate>
  </rect>
</g><g transform="rotate(120 50 50)">
  <rect x="46" y="23.5" rx="2.32" ry="2.32" width="8" height="7" fill="#5ca8f6">
    <animate attributeName="opacity" values="1;0" keyTimes="0;1" dur="0.5780346820809249s" begin="-0.3371868978805395s" repeatCount="indefinite"></animate>
  </rect>
</g><g transform="rotate(150 50 50)">
  <rect x="46" y="23.5" rx="2.32" ry="2.32" width="8" height="7" fill="#5ca8f6">
    <animate attributeName="opacity" values="1;0" keyTimes="0;1" dur="0.5780346820809249s" begin="-0.28901734104046245s" repeatCount="indefinite"></animate>
  </rect>
</g><g transform="rotate(180 50 50)">
  <rect x="46" y="23.5" rx="2.32" ry="2.32" width="8" height="7" fill="#5ca8f6">
    <animate attributeName="opacity" values="1;0" keyTimes="0;1" dur="0.5780346820809249s" begin="-0.24084778420038538s" repeatCount="indefinite"></animate>
  </rect>
</g><g transform="rotate(210 50 50)">
  <rect x="46" y="23.5" rx="2.32" ry="2.32" width="8" height="7" fill="#5ca8f6">
    <animate attributeName="opacity" values="1;0" keyTimes="0;1" dur="0.5780346820809249s" begin="-0.1926782273603083s" repeatCount="indefinite"></animate>
  </rect>
</g><g transform="rotate(240 50 50)">
  <rect x="46" y="23.5" rx="2.32" ry="2.32" width="8" height="7" fill="#5ca8f6">
    <animate attributeName="opacity" values="1;0" keyTimes="0;1" dur="0.5780346820809249s" begin="-0.14450867052023122s" repeatCount="indefinite"></animate>
  </rect>
</g><g transform="rotate(270 50 50)">
  <rect x="46" y="23.5" rx="2.32" ry="2.32" width="8" height="7" fill="#5ca8f6">
    <animate attributeName="opacity" values="1;0" keyTimes="0;1" dur="0.5780346820809249s" begin="-0.09633911368015415s" repeatCount="indefinite"></animate>
  </rect>
</g><g transform="rotate(300 50 50)">
  <rect x="46" y="23.5" rx="2.32" ry="2.32" width="8" height="7" fill="#5ca8f6">
    <animate attributeName="opacity" values="1;0" keyTimes="0;1" dur="0.5780346820809249s" begin="-0.04816955684007707s" repeatCount="indefinite"></animate>
  </rect>
</g><g transform="rotate(330 50 50)">
  <rect x="46" y="23.5" rx="2.32" ry="2.32" width="8" height="7" fill="#5ca8f6">
    <animate attributeName="opacity" values="1;0" keyTimes="0;1" dur="0.5780346820809249s" begin="0s" repeatCount="indefinite"></animate>
  </rect>
</g>
<!-- [ldio] generated by https://loading.io/ --></svg>